<svg width="34" height="31" viewBox="0 0 34 31" fill="none" xmlns="http://www.w3.org/2000/svg">
<g clip-path="url(#clip0_201_5259)">
<path d="M33.2509 17.7826L29.0553 24.9751C28.7288 25.5348 28.2613 25.9992 27.6994 26.3219C27.1375 26.6447 26.5008 26.8145 25.8528 26.8145H2.68234C1.60927 26.8145 0.940687 25.6505 1.48136 24.7236L5.67699 17.5311C6.0035 16.9714 6.47102 16.507 7.03293 16.1843C7.59485 15.8615 8.23154 15.6917 8.87955 15.6917H32.05C33.1231 15.6917 33.7917 16.8557 33.2509 17.7826ZM8.87955 13.8379H27.8811V11.0572C27.8811 9.52141 26.6361 8.27646 25.1003 8.27646H15.8313L12.1237 4.56885H2.85468C1.31892 4.56885 0.0739746 5.81379 0.0739746 7.34956V23.4572L4.0757 16.597C5.06847 14.8951 6.90925 13.8379 8.87955 13.8379Z" fill="black"/>
</g>
<defs>
<clipPath id="clip0_201_5259">
<rect width="33.3685" height="29.6609" fill="white" transform="translate(0.0739746 0.861328)"/>
</clipPath>
</defs>
</svg>
